<svg xmlns="http://www.w3.org/2000/svg" width="32" height="32" viewBox="0 0 1024 1024"><path fill="#1296db" d="M913.066667 537.6l-426.666667-426.666667c-14.222222-17.066667-36.977778-25.6-59.733333-25.6H142.222222C93.866667 85.333333 56.888889 122.311111 56.888889 170.666667v284.444444c0 22.755556 8.533333 45.511111 25.6 59.733333l426.666667 426.666667c17.066667 17.066667 39.822222 25.6 59.733333 25.6s42.666667-8.533333 59.733333-25.6l284.444445-284.444444c34.133333-31.288889 34.133333-88.177778 0-119.466667zM256 341.333333c-31.288889 0-56.888889-25.6-56.888889-56.888889s25.6-56.888889 56.888889-56.888888 56.888889 25.6 56.888889 56.888888-25.6 56.888889-56.888889 56.888889z" p-id="1107"/></svg>